<svg viewBox="0 0 32 32" xmlns="http://www.w3.org/2000/svg" xmlns:xlink="http://www.w3.org/1999/xlink" width="32.000000" height="32.000000" fill="none">
	<rect id="close" width="32.000000" height="32.000000" x="0.000000" y="0.000000" />
	<path id="close-logo" d="M16 17.1924L11.8266 21.3658C11.6705 21.522 11.4717 21.6 11.2304 21.6C10.9891 21.6 10.7904 21.522 10.6342 21.3658C10.4781 21.2097 10.4 21.0109 10.4 20.7696C10.4 20.5283 10.4781 20.3296 10.6342 20.1734L14.8076 16L10.6342 11.8266C10.4781 11.6705 10.4 11.4718 10.4 11.2304C10.4 10.9891 10.4781 10.7904 10.6342 10.6342C10.7904 10.4781 10.9891 10.4 11.2304 10.4C11.4717 10.4 11.6705 10.4781 11.8266 10.6342L16 14.8076L20.1734 10.6342C20.3295 10.4781 20.5283 10.4 20.7696 10.4C21.0109 10.4 21.2096 10.4781 21.3658 10.6342C21.5219 10.7904 21.6 10.9891 21.6 11.2304C21.6 11.4718 21.5219 11.6705 21.3658 11.8266L17.1924 16L21.3658 20.1734C21.5219 20.3296 21.6 20.5283 21.6 20.7696C21.6 21.0109 21.5219 21.2097 21.3658 21.3658C21.2096 21.522 21.0109 21.6 20.7696 21.6C20.5283 21.6 20.3295 21.522 20.1734 21.3658L16 17.1924Z" fill="currentColor" />
</svg>
