<svg viewBox="0 0 14 14" xmlns="http://www.w3.org/2000/svg" xmlns:xlink="http://www.w3.org/1999/xlink" width="14.000000" height="14.000000" fill="none">
	<rect id="gitee" width="14.000000" height="14.000000" x="0.000000" y="0.000000" />
	<path id="gitee-icon" d="M7 14C3.1339 14 0 10.8661 0 7C0 3.1339 3.1339 0 7 0C10.8661 0 14 3.1339 14 7C14 10.8661 10.8661 14 7 14ZM10.543 6.2223L6.5681 6.2223C6.5074 6.2223 6.44777 6.23828 6.3952 6.26863C6.34263 6.29898 6.29898 6.34263 6.26863 6.3952C6.23828 6.44777 6.2223 6.5074 6.2223 6.5681L6.22195 7.43225C6.22195 7.623 6.37665 7.77805 6.5674 7.77805L8.98765 7.77805C9.17875 7.77805 9.33345 7.93275 9.33345 8.1235L9.33345 8.2964C9.33345 8.47844 9.28553 8.65727 9.19451 8.81493C9.10349 8.97258 8.97258 9.10349 8.81493 9.19451C8.65727 9.28553 8.47844 9.33345 8.2964 9.33345L5.012 9.33345C4.95134 9.33339 4.89176 9.31737 4.83925 9.287C4.78673 9.25664 4.74313 9.21299 4.71282 9.16045C4.68251 9.1079 4.66655 9.04831 4.66655 8.98765L4.66655 5.70395C4.66655 5.52195 4.71445 5.34315 4.80543 5.18553C4.89641 5.0279 5.02728 4.89699 5.18487 4.80596C5.34247 4.71492 5.52125 4.66696 5.70325 4.6669L10.5423 4.6669C10.603 4.66684 10.6626 4.65082 10.7151 4.62046C10.7676 4.59009 10.8112 4.54644 10.8415 4.4939C10.8718 4.44136 10.8878 4.38176 10.8878 4.3211L10.8889 3.45695C10.8889 3.39629 10.8729 3.3367 10.8426 3.28415C10.8123 3.23161 10.7687 3.18796 10.7162 3.1576C10.6636 3.12723 10.6041 3.11121 10.5434 3.11115L5.70325 3.11115C5.24814 3.11115 4.80105 3.23096 4.40692 3.45853C4.0128 3.6861 3.68553 4.01342 3.45801 4.40758C3.23049 4.80173 3.11074 5.24884 3.1108 5.70395L3.1108 10.5431C3.1108 10.7342 3.2655 10.8889 3.4566 10.8889L8.5554 10.8889C8.96494 10.8889 9.36727 10.781 9.72195 10.5763C10.0766 10.3715 10.3712 10.077 10.5759 9.7223C10.7807 9.36762 10.8885 8.96529 10.8885 8.55575L10.8885 6.56775C10.8884 6.50709 10.8724 6.44751 10.8421 6.395C10.8117 6.34248 10.768 6.29888 10.7155 6.26857C10.663 6.23826 10.6034 6.2223 10.5427 6.2223L10.543 6.2223Z" fill="rgb(199,29,35)" />
</svg>
