<svg viewBox="0 0 14 14" xmlns="http://www.w3.org/2000/svg" xmlns:xlink="http://www.w3.org/1999/xlink" width="14.000000" height="14.000000" fill="none">
	<rect id="github" width="14.000000" height="14.000000" x="0.000000" y="0.000000" />
	<path id="github-icon" d="M7.00001 0.583336C5.88555 0.572011 4.78772 0.854091 3.81676 1.40125C2.8458 1.94841 2.03589 2.7414 1.46833 3.70058C0.900779 4.65976 0.595567 5.75139 0.583344 6.86584C0.587648 7.74887 0.777712 8.62112 1.14118 9.42589C1.50465 10.2307 2.03339 10.9499 2.69304 11.537C3.35269 12.1241 4.12849 12.5657 4.97001 12.8333C5.29084 12.8917 5.40751 12.6992 5.40751 12.53L5.40751 11.4625C3.62251 11.8417 3.24334 10.6225 3.24334 10.6225C3.1844 10.4327 3.09201 10.2549 2.97053 10.0976C2.84905 9.94023 2.70043 9.80588 2.53168 9.70084C1.94834 9.31584 2.57834 9.32167 2.57834 9.32167C2.77997 9.34862 2.97288 9.42088 3.14261 9.53302C3.31233 9.64516 3.45446 9.79427 3.55834 9.96917C3.67818 10.177 3.85002 10.35 4.05697 10.4713C4.26393 10.5926 4.49888 10.6579 4.73873 10.6609C4.97859 10.6639 5.2151 10.6044 5.42501 10.4883C5.44119 10.3298 5.48511 10.1754 5.55476 10.0322C5.62441 9.88888 5.71871 9.75896 5.83334 9.64833C4.41001 9.49083 2.91668 8.95417 2.91668 6.545C2.91037 6.23371 2.96418 5.92412 3.07514 5.63321C3.18611 5.34229 3.35216 5.07552 3.56418 4.8475C3.46762 4.58025 3.42363 4.29685 3.43463 4.01291C3.44563 3.72896 3.5114 3.44982 3.62834 3.19084C3.62834 3.19084 4.17084 3.02167 5.37834 3.8325C6.42945 3.55241 7.53557 3.55241 8.58668 3.8325C9.81168 3.02167 10.3367 3.19084 10.3367 3.19084C10.4536 3.44982 10.5194 3.72896 10.5304 4.01291C10.5414 4.29685 10.4974 4.58025 10.4008 4.8475C10.6178 5.07133 10.7895 5.33496 10.9064 5.62389C11.0234 5.91282 11.0835 6.22162 11.0833 6.53334C11.0833 8.94833 9.57834 9.47917 8.16668 9.63667C8.32125 9.78674 8.44065 9.9692 8.5163 10.1709C8.59195 10.3726 8.62196 10.5886 8.60418 10.8033L8.60418 12.5242C8.60418 12.7283 8.72084 12.8917 9.04168 12.8275C10.3062 12.4217 11.4102 11.6267 12.1959 10.5561C12.9816 9.48542 13.4089 8.19384 13.4167 6.86584C13.4045 5.75139 13.0992 4.65976 12.5317 3.70058C11.9641 2.7414 11.1542 1.94841 10.1833 1.40125C9.2123 0.854091 8.11447 0.572011 7.00001 0.583336Z" fill="rgb(44,44,44)" />
</svg>
