<svg viewBox="0 0 400 400" xmlns="http://www.w3.org/2000/svg" xmlns:xlink="http://www.w3.org/1999/xlink" width="32.000000" height="32.000000" fill="none">
	<path id="logo" d="M101.655 159.47C87.6017 106.059 119.507 51.3689 172.918 37.3159C226.329 23.2629 281.019 55.1687 295.072 108.579C300.309 128.486 299.163 148.571 292.898 166.663C297.283 167.328 301.675 168.293 306.05 169.57C359.066 185.048 389.496 240.572 374.019 293.587C358.542 346.603 303.017 377.033 250.001 361.556C229.823 355.665 212.916 343.972 200.567 328.824C198.171 331.761 195.584 334.592 192.805 337.301C153.259 375.853 89.9473 375.047 51.395 335.5C12.8429 295.954 13.6488 232.643 53.1952 194.09C67.756 179.896 85.5385 171.037 104.121 167.482C103.196 164.87 102.372 162.198 101.655 159.47ZM210.571 191.72C207.257 195.474 204.274 199.566 201.682 203.964C206.916 210.618 211.184 217.778 214.489 225.257C251.18 210.341 271.977 170.147 261.63 130.821C250.388 88.0921 206.636 62.5674 163.907 73.8098C122.635 84.6692 97.4137 125.861 105.875 167.163C137.258 161.738 170.694 171.363 194.605 195.891C196.664 198.003 198.611 200.183 200.446 202.424L200.446 202.424C203.567 198.592 206.954 195.018 210.571 191.72ZM196.153 208.098C165.06 182.071 118.69 183.311 89.0297 212.226C57.3927 243.067 56.7479 293.717 87.5896 325.354C118.106 356.657 168.015 357.619 199.711 327.759C180.246 303.206 172.584 269.905 182.033 237.539C182.487 235.986 182.974 234.452 183.495 232.939C178.855 232.239 174.292 231.215 169.836 229.884C174.504 230.743 179.28 231.19 184.113 231.196C187.164 222.834 191.239 215.1 196.153 208.098ZM191.318 233.803C199.363 234.371 207.582 233.964 215.819 232.495C217.645 235.991 219.195 239.594 220.468 243.27C219.614 239.544 218.545 235.856 217.259 232.227C219.442 231.805 221.626 231.307 223.808 230.733C256.928 222.019 281.779 197.679 292.53 167.708C292.69 167.754 292.85 167.8 293.011 167.847C335.423 180.229 359.768 224.648 347.386 267.061C335.004 309.473 290.584 333.817 248.172 321.435C209.612 310.178 185.987 272.439 191.318 233.803ZM193.797 222.221C195.033 217.987 196.589 213.933 198.43 210.077C199.701 211.225 200.945 212.422 202.158 213.666C205.963 217.569 209.289 221.761 212.136 226.17C209.696 227.074 207.189 227.868 204.62 228.544C200.34 229.669 196.051 230.427 191.784 230.835C192.291 227.961 192.96 225.087 193.797 222.221Z" fill="currentColor" fill-rule="evenodd" />
</svg>
