<svg viewBox="0 0 400 400" xmlns="http://www.w3.org/2000/svg" xmlns:xlink="http://www.w3.org/1999/xlink" width="400.000000" height="400.000000" fill="none">
	<rect id="linyu" width="400.000000" height="400.000000" x="0.000000" y="0.000000" fill="rgb(255,255,255)" fill-opacity="0" />
	<path id="linyu1" d="M374.019 293.587C389.496 240.572 359.066 185.048 306.05 169.57C298.572 167.387 291.044 166.117 283.586 165.695C286.729 166.217 289.875 166.931 293.011 167.847C335.423 180.229 359.768 224.648 347.386 267.061C335.004 309.473 290.584 333.817 248.172 321.435C205.759 309.054 181.415 264.634 193.797 222.221C197.202 210.559 203.029 200.262 210.571 191.72C197.462 203.673 187.368 219.264 182.033 237.539C166.556 290.554 196.986 346.078 250.001 361.556C303.017 377.033 358.541 346.603 374.019 293.587Z" fill="rgb(76,155,255)" fill-rule="evenodd" />
	<path id="linyu1" d="M172.918 37.3159C119.507 51.3689 87.6017 106.059 101.655 159.47C103.637 167.003 106.428 174.109 109.909 180.719C108.737 177.756 107.728 174.691 106.897 171.533C95.6544 128.804 121.179 85.0523 163.907 73.8098C206.636 62.5674 250.388 88.0921 261.63 130.821C272.873 173.549 247.348 217.301 204.62 228.544C192.87 231.635 181.043 231.946 169.836 229.884C186.834 234.96 205.397 235.577 223.808 230.733C277.219 216.68 309.125 161.99 295.072 108.579C281.019 55.1687 226.329 23.2629 172.918 37.3159Z" fill="rgb(76,155,255)" fill-rule="evenodd" />
	<path id="linyu1" d="M172.918 37.3159C119.507 51.3689 87.6017 106.059 101.655 159.47C103.637 167.003 106.428 174.109 109.909 180.719C108.737 177.756 107.728 174.691 106.897 171.533C95.6544 128.804 121.179 85.0523 163.907 73.8098C206.636 62.5674 250.388 88.0921 261.63 130.821C272.873 173.549 247.348 217.301 204.62 228.544C192.87 231.635 181.043 231.946 169.836 229.884C186.834 234.96 205.397 235.577 223.808 230.733C277.219 216.68 309.125 161.99 295.072 108.579C281.019 55.1687 226.329 23.2629 172.918 37.3159Z" fill="rgb(160,217,246)" fill-rule="evenodd" />
	<path id="linyu1" d="M51.395 335.5C89.9473 375.047 153.259 375.853 192.805 337.301C198.383 331.863 203.191 325.932 207.226 319.645C205.226 322.126 203.056 324.514 200.718 326.794C169.08 357.636 118.431 356.991 87.5896 325.354C56.7479 293.717 57.3927 243.067 89.0297 212.226C120.667 181.384 171.316 182.029 202.158 213.666C210.639 222.365 216.739 232.502 220.468 243.27C216.507 225.978 207.894 209.523 194.605 195.891C156.053 156.344 92.7416 155.538 53.1952 194.09C13.6488 232.643 12.8429 295.954 51.395 335.5Z" fill="rgb(76,155,255)" fill-rule="evenodd" />
	<path id="linyu1" d="M51.395 335.5C89.9473 375.047 153.259 375.853 192.805 337.301C198.383 331.863 203.191 325.932 207.226 319.645C205.226 322.126 203.056 324.514 200.718 326.794C169.08 357.636 118.431 356.991 87.5896 325.354C56.7479 293.717 57.3927 243.067 89.0297 212.226C120.667 181.384 171.316 182.029 202.158 213.666C210.639 222.365 216.739 232.502 220.468 243.27C216.507 225.978 207.894 209.523 194.605 195.891C156.053 156.344 92.7416 155.538 53.1952 194.09C13.6488 232.643 12.8429 295.954 51.395 335.5Z" fill="rgb(118,178,251)" fill-rule="evenodd" />
	<path id="linyu1" d="M200.567 328.824C200.279 328.471 199.993 328.116 199.71 327.759C200.048 327.44 200.384 327.119 200.717 326.794C203.056 324.513 205.226 322.125 207.226 319.644C205.201 322.8 202.981 325.865 200.567 328.824ZM196.153 208.098C197.52 206.149 198.953 204.257 200.446 202.424C200.864 202.934 201.276 203.447 201.682 203.964C200.517 205.941 199.431 207.98 198.43 210.077C197.68 209.401 196.921 208.741 196.153 208.098Z" fill="rgb(76,155,255)" fill-rule="evenodd" />
	<path id="linyu1" d="M200.567 328.824C200.279 328.471 199.993 328.116 199.71 327.759C200.048 327.44 200.384 327.119 200.717 326.794C203.056 324.513 205.226 322.125 207.226 319.644C205.201 322.8 202.981 325.865 200.567 328.824ZM196.153 208.098C197.52 206.149 198.953 204.257 200.446 202.424C200.864 202.934 201.276 203.447 201.682 203.964C200.517 205.941 199.431 207.98 198.43 210.077C197.68 209.401 196.921 208.741 196.153 208.098Z" fill="rgb(76,155,255)" fill-rule="evenodd" />
</svg>
