<svg viewBox="0 0 32 32" xmlns="http://www.w3.org/2000/svg" xmlns:xlink="http://www.w3.org/1999/xlink" width="32.000000" height="32.000000" fill="none">
	<rect id="minimize" width="32.000000" height="32.000000" x="0.000000" y="0.000000" />
	<path id="minimize-icon" d="M11.1 16.6C10.9017 16.6 10.7353 16.5328 10.6009 16.3984C10.4665 16.264 10.3995 16.0978 10.4 15.9C10.4 15.7016 10.4672 15.5353 10.6016 15.4009C10.736 15.2665 10.9021 15.1995 11.1 15.2L20.9 15.2C21.0983 15.2 21.2647 15.2672 21.3991 15.4016C21.5335 15.536 21.6005 15.7021 21.6 15.9C21.6 16.0983 21.5328 16.2647 21.3984 16.3991C21.264 16.5335 21.0979 16.6004 20.9 16.6L11.1 16.6Z" fill="currentColor"/>
</svg>
