<svg viewBox="0 0 14 14" xmlns="http://www.w3.org/2000/svg" xmlns:xlink="http://www.w3.org/1999/xlink" width="14.000000" height="14.000000" fill="none">
	<rect id="scanqr" width="14.000000" height="14.000000" x="0.000000" y="0.000000" />
	<path id="scanqr1" d="M10.7186 7.43731L10.7186 9.68172C10.7186 9.86376 10.6706 10.0426 10.5796 10.2002C10.4886 10.3579 10.3577 10.4888 10.2 10.5798C10.0424 10.6708 9.86356 10.7188 9.68152 10.7188L4.31848 10.7188C4.13644 10.7188 3.95761 10.6708 3.79996 10.5798C3.64231 10.4888 3.5114 10.3579 3.42038 10.2002C3.32936 10.0426 3.28144 9.86376 3.28144 9.68172L3.28144 7.43731L10.7188 7.43731L10.7186 7.43731ZM9.68152 3.28139C9.86356 3.28139 10.0424 3.3293 10.2 3.42032C10.3577 3.51134 10.4886 3.64226 10.5796 3.79991C10.6706 3.95756 10.7186 4.13639 10.7186 4.31842L10.7186 6.56231L3.28119 6.56231L3.28119 4.31816C3.28119 4.13613 3.3291 3.9573 3.42012 3.79965C3.51114 3.642 3.64205 3.51108 3.7997 3.42006C3.95735 3.32905 4.13618 3.28113 4.31822 3.28113L9.68178 3.28113L9.68152 3.28139Z" fill="rgb(76,155,255)"/>
	<path id="scanqr2" d="M10.9941 1.54102C11.2449 1.54101 11.4915 1.60538 11.7103 1.72797C11.929 1.85057 12.1127 2.02727 12.2436 2.24117C12.3745 2.45506 12.4483 2.69898 12.4579 2.94957L12.459 3.00583L12.459 4.59379C12.459 4.68166 12.4321 4.76743 12.3817 4.83942C12.3313 4.91142 12.26 4.96615 12.1774 4.99618C12.0948 5.02621 12.005 5.03008 11.9201 5.00727C11.8353 4.98446 11.7595 4.93606 11.7031 4.86867C11.6467 4.80128 11.6124 4.71816 11.605 4.63061L11.6034 4.59379L11.6034 3.00583C11.6034 2.90359 11.5777 2.80298 11.5286 2.71328C11.4796 2.62358 11.4087 2.54768 11.3226 2.49256C11.2365 2.43744 11.1379 2.40487 11.0359 2.39787L10.9944 2.39657L9.40593 2.39657C9.31806 2.39665 9.23229 2.36966 9.1603 2.31928C9.0883 2.2689 9.03357 2.19757 9.00354 2.11499C8.97351 2.03241 8.96963 1.94259 8.99245 1.85773C9.01526 1.77287 9.06365 1.6971 9.13105 1.64071C9.19844 1.58432 9.28156 1.55006 9.36911 1.54257L9.40593 1.54102L10.9939 1.54102L10.9941 1.54102ZM10.9941 12.4589C11.2449 12.4589 11.4915 12.3946 11.7103 12.272C11.929 12.1494 12.1127 11.9727 12.2436 11.7588C12.3745 11.5449 12.4483 11.301 12.4579 11.0504L12.459 10.9941L12.459 9.40616C12.459 9.31829 12.4321 9.23253 12.3817 9.16053C12.3313 9.08854 12.26 9.03381 12.1774 9.00378C12.0948 8.97375 12.005 8.96987 11.9201 8.99269C11.8353 9.0155 11.7595 9.06389 11.7031 9.13128C11.6467 9.19868 11.6124 9.2818 11.605 9.36935L11.6034 9.40616L11.6034 10.9941C11.6034 11.0964 11.5777 11.197 11.5286 11.2867C11.4796 11.3764 11.4087 11.4523 11.3226 11.5074C11.2365 11.5625 11.1379 11.5951 11.0359 11.6021L10.9944 11.6034L9.40593 11.6034C9.31806 11.6033 9.23229 11.6303 9.1603 11.6807C9.0883 11.7311 9.03357 11.8024 9.00354 11.885C8.97351 11.9675 8.96964 12.0574 8.99245 12.1422C9.01526 12.2271 9.06365 12.3029 9.13105 12.3592C9.19844 12.4156 9.28156 12.4499 9.36911 12.4574L9.40593 12.4589L10.9939 12.4589L10.9941 12.4589ZM3.00585 1.54102C2.75508 1.54101 2.5085 1.60538 2.28973 1.72797C2.07096 1.85057 1.88733 2.02727 1.75642 2.24117C1.62551 2.45506 1.55171 2.69898 1.54207 2.94957L1.54104 3.00583L1.54104 4.59379C1.54096 4.68166 1.56795 4.76743 1.61833 4.83942C1.66871 4.91142 1.74003 4.96615 1.82261 4.99618C1.90519 5.02621 1.99502 5.03008 2.07988 5.00727C2.16473 4.98446 2.24051 4.93607 2.2969 4.86867C2.35328 4.80128 2.38755 4.71816 2.39504 4.63061L2.39659 4.59379L2.39659 3.00583C2.39657 2.90359 2.42228 2.80298 2.47135 2.71328C2.52042 2.62358 2.59128 2.54768 2.67739 2.49256C2.76351 2.43744 2.86211 2.40487 2.96411 2.39787L3.00559 2.39657L4.59381 2.39657C4.68169 2.39665 4.76745 2.36966 4.83944 2.31928C4.91144 2.2689 4.96617 2.19757 4.9962 2.11499C5.02623 2.03241 5.03011 1.94259 5.00729 1.85773C4.98448 1.77287 4.93609 1.6971 4.8687 1.64071C4.8013 1.58432 4.71818 1.55006 4.63063 1.54257L4.59381 1.54102L3.00585 1.54102L3.00585 1.54102ZM3.00585 12.4589C2.75508 12.4589 2.5085 12.3946 2.28973 12.272C2.07096 12.1494 1.88733 11.9727 1.75642 11.7588C1.62551 11.5449 1.55171 11.301 1.54207 11.0504L1.54104 10.9941L1.54104 9.40616C1.54096 9.31829 1.56795 9.23253 1.61833 9.16053C1.66871 9.08854 1.74003 9.03381 1.82261 9.00378C1.90519 8.97375 1.99502 8.96987 2.07988 8.99269C2.16473 9.0155 2.24051 9.06389 2.2969 9.13128C2.35328 9.19868 2.38755 9.2818 2.39504 9.36935L2.39659 9.40616L2.39659 10.9941C2.39657 11.0964 2.42228 11.197 2.47135 11.2867C2.52042 11.3764 2.59128 11.4523 2.67739 11.5074C2.76351 11.5625 2.86211 11.5951 2.96411 11.6021L3.00559 11.6034L4.59381 11.6034C4.68169 11.6033 4.76745 11.6303 4.83944 11.6807C4.91144 11.7311 4.96617 11.8024 4.9962 11.885C5.02623 11.9675 5.0301 12.0574 5.00729 12.1422C4.98448 12.2271 4.93609 12.3029 4.86869 12.3592C4.8013 12.4156 4.71818 12.4499 4.63063 12.4574L4.59381 12.4589L3.00585 12.4589L3.00585 12.4589Z" fill="rgb(76,155,255)" fill-opacity="0.5" />
</svg>
