<svg viewBox="0 0 355.052 331.696" xmlns="http://www.w3.org/2000/svg" xmlns:xlink="http://www.w3.org/1999/xlink" width="355.052002" height="331.695557" fill="none" customFrame="#000000">
	<path id="1" d="M351.019 259.587C366.496 206.572 336.066 151.048 283.05 135.57C275.572 133.387 268.044 132.117 260.586 131.695C263.729 132.217 266.875 132.931 270.011 133.847C312.423 146.229 336.768 190.648 324.386 233.061C312.004 275.473 267.584 299.817 225.172 287.435C182.759 275.054 158.415 230.634 170.797 188.221C174.202 176.559 180.029 166.262 187.571 157.72C174.462 169.673 164.368 185.264 159.033 203.539C143.556 256.554 173.986 312.078 227.001 327.556C280.017 343.033 335.541 312.603 351.019 259.587Z" fill="rgb(76,155,255)" fill-rule="evenodd" />
	<path id="2" d="M149.918 3.31592C96.5074 17.3689 64.6017 72.0589 78.6547 125.47C80.637 133.003 83.4277 140.109 86.9094 146.719C85.7366 143.756 84.7278 140.691 83.8967 137.533C72.6544 94.8042 98.179 51.0523 140.907 39.8098C183.636 28.5674 227.388 54.0921 238.63 96.8206C249.873 139.549 224.348 183.301 181.62 194.544C169.87 197.635 158.043 197.946 146.836 195.884C163.834 200.96 182.397 201.577 200.808 196.733C254.219 182.68 286.125 127.99 272.072 74.5794C258.019 21.1687 203.329 -10.7371 149.918 3.31592Z" fill="rgb(76,155,255)" fill-rule="evenodd" />
	<path id="3" d="M149.918 3.31592C96.5074 17.3689 64.6017 72.0589 78.6547 125.47C80.637 133.003 83.4277 140.109 86.9094 146.719C85.7366 143.756 84.7278 140.691 83.8967 137.533C72.6544 94.8042 98.179 51.0523 140.907 39.8098C183.636 28.5674 227.388 54.0921 238.63 96.8206C249.873 139.549 224.348 183.301 181.62 194.544C169.87 197.635 158.043 197.946 146.836 195.884C163.834 200.96 182.397 201.577 200.808 196.733C254.219 182.68 286.125 127.99 272.072 74.5794C258.019 21.1687 203.329 -10.7371 149.918 3.31592Z" fill="rgb(160,217,246)" fill-rule="evenodd" />
	<path id="4" d="M28.395 301.5C66.9473 341.047 130.259 341.853 169.805 303.301C175.383 297.863 180.191 291.932 184.226 285.645C182.226 288.126 180.056 290.514 177.718 292.794C146.08 323.636 95.4314 322.991 64.5896 291.354C33.7479 259.717 34.3927 209.067 66.0297 178.226C97.6667 147.384 148.316 148.029 179.158 179.666C187.639 188.365 193.739 198.502 197.468 209.27C193.507 191.978 184.894 175.523 171.605 161.891C133.053 122.344 69.7416 121.538 30.1952 160.09C-9.3512 198.643 -10.1571 261.954 28.395 301.5Z" fill="rgb(76,155,255)" fill-rule="evenodd" />
	<path id="5" d="M28.395 301.5C66.9473 341.047 130.259 341.853 169.805 303.301C175.383 297.863 180.191 291.932 184.226 285.645C182.226 288.126 180.056 290.514 177.718 292.794C146.08 323.636 95.4314 322.991 64.5896 291.354C33.7479 259.717 34.3927 209.067 66.0297 178.226C97.6667 147.384 148.316 148.029 179.158 179.666C187.639 188.365 193.739 198.502 197.468 209.27C193.507 191.978 184.894 175.523 171.605 161.891C133.053 122.344 69.7416 121.538 30.1952 160.09C-9.3512 198.643 -10.1571 261.954 28.395 301.5Z" fill="rgb(118,178,251)" fill-rule="evenodd" />
	<path id="6" d="M177.567 294.824C177.279 294.471 176.993 294.116 176.71 293.759C177.048 293.44 177.384 293.119 177.717 292.794C180.056 290.513 182.226 288.125 184.226 285.644C182.201 288.8 179.981 291.865 177.567 294.824ZM173.153 174.098C174.52 172.149 175.953 170.257 177.446 168.424C177.864 168.934 178.276 169.447 178.682 169.964C177.517 171.941 176.431 173.98 175.43 176.077C174.68 175.401 173.921 174.741 173.153 174.098Z" fill="rgb(76,155,255)" fill-rule="evenodd" />
	<path id="7" d="M177.567 294.824C177.279 294.471 176.993 294.116 176.71 293.759C177.048 293.44 177.384 293.119 177.717 292.794C180.056 290.513 182.226 288.125 184.226 285.644C182.201 288.8 179.981 291.865 177.567 294.824ZM173.153 174.098C174.52 172.149 175.953 170.257 177.446 168.424C177.864 168.934 178.276 169.447 178.682 169.964C177.517 171.941 176.431 173.98 175.43 176.077C174.68 175.401 173.921 174.741 173.153 174.098Z" fill="rgb(76,155,255)" fill-rule="evenodd" />
</svg>
